<?xml version="1.0" encoding="UTF-8" standalone="no"?>
<svg
   width="300"
   height="300"
   viewBox="0 0 300 300"
   preserveAspectRatio="xMidYMid meet"
   version="1.1"
   id="svg2"
   sodipodi:docname="Jdenticon.svg"
   inkscape:version="1.3.2 (091e20e, 2023-11-25)"
   xmlns:inkscape="http://www.inkscape.org/namespaces/inkscape"
   xmlns:sodipodi="http://sodipodi.sourceforge.net/DTD/sodipodi-0.dtd"
   xmlns="http://www.w3.org/2000/svg"
   xmlns:svg="http://www.w3.org/2000/svg">
  <defs
     id="defs2" />
  <sodipodi:namedview
     id="namedview2"
     pagecolor="#505050"
     bordercolor="#eeeeee"
     borderopacity="1"
     inkscape:showpageshadow="0"
     inkscape:pageopacity="0"
     inkscape:pagecheckerboard="0"
     inkscape:deskcolor="#505050"
     inkscape:zoom="1.5673426"
     inkscape:cx="120.26726"
     inkscape:cy="145.46915"
     inkscape:window-width="1512"
     inkscape:window-height="845"
     inkscape:window-x="0"
     inkscape:window-y="38"
     inkscape:window-maximized="1"
     inkscape:current-layer="svg2" />
  <path
     fill="#545454"
     d="M150 87L87 87L87 24ZM150 87L150 24L213 24ZM150 213L213 213L213 276ZM150 213L150 276L87 276ZM87 150L24 150L24 87ZM213 150L213 87L276 87ZM213 150L276 150L276 213ZM87 150L87 213L24 213Z"
     id="path1" />
  <path
     fill="#bf75d1"
     d="M55.5 87L24 55.5L55.5 24L87 55.5ZM213 55.5L244.5 24L276 55.5L244.5 87ZM244.5 213L276 244.5L244.5 276L213 244.5ZM87 244.5L55.5 276L24 244.5L55.5 213ZM150 87L150 137L119 87ZM213 150L163 150L213 119ZM150 213L150 163L181 213ZM87 150L137 150L87 181Z"
     id="path2" />
</svg>
